<svg width="512" height="512" viewBox="0 0 512 512" fill="none" xmlns="http://www.w3.org/2000/svg">
<g clip-path="url(#clip0_402_90)">
<rect width="512" height="512" rx="128" fill="#FCE5FD"/>
<path d="M361.024 229.192C361.024 230.984 360.512 232.904 359.488 234.952C358.72 237 357.568 238.536 356.032 239.56C354.24 241.096 350.528 242.504 344.896 243.784C339.264 244.808 335.424 245.448 333.376 245.704C335.424 255.432 336.448 260.168 336.448 259.912C338.24 266.312 340.16 275.144 342.208 286.408C346.816 312.264 351.552 334.28 356.416 352.456C357.696 358.344 358.336 361.8 358.336 362.824C358.336 365.384 357.312 367.56 355.264 369.352C353.216 371.144 350.784 372.04 347.968 372.04C345.408 372.04 343.104 370.632 341.056 367.816C339.008 365.256 337.6 362.952 336.832 360.904C334.528 352.2 332.352 342.472 330.304 331.72C328.512 320.968 326.336 308.04 323.776 292.936C322.752 286.28 321.088 278.088 318.784 268.36C316.48 258.376 314.944 251.848 314.176 248.776C299.072 250.824 273.088 254.92 236.224 261.064L213.952 264.904L205.888 287.56L195.136 318.28C186.176 346.184 179.776 367.688 175.936 382.792C175.168 386.376 173.632 389.32 171.328 391.624C169.024 394.184 166.208 395.464 162.88 395.464C160.064 395.464 157.632 394.696 155.584 393.16C153.792 391.624 152.896 389.448 152.896 386.632C152.896 383.816 154.432 377.8 157.504 368.584C160.576 359.624 162.368 354.248 162.88 352.456C163.904 349.896 165.952 344.008 169.024 334.792C172.352 324.808 176.576 312.776 181.696 298.696C187.072 284.36 190.656 274.888 192.448 270.28C179.392 273.352 169.664 275.784 163.264 277.576C153.536 280.136 147.52 281.416 145.216 281.416C142.4 281.416 140.224 280.392 138.688 278.344C137.408 276.04 136.768 273.608 136.768 271.048C136.768 267.976 137.536 265.928 139.072 264.904C140.608 263.624 143.168 262.472 146.752 261.448C156.48 259.144 166.72 256.84 177.472 254.536C188.48 252.232 196.032 250.696 200.128 249.928C202.688 242.504 204.608 236.232 205.888 231.112C206.912 227.784 208.192 223.688 209.728 218.824C211.52 213.704 213.44 207.432 215.488 200.008L221.248 180.424C230.976 146.12 236.608 126.536 238.144 121.672C239.424 118.088 240.576 115.272 241.6 113.224C242.88 111.176 244.544 110.152 246.592 110.152C251.712 110.152 256.32 110.92 260.416 112.456C260.928 111.944 261.696 110.92 262.72 109.384C264 107.592 265.28 106.44 266.56 105.928C268.096 105.16 270.016 104.776 272.32 104.776C276.928 104.776 282.176 110.024 288.064 120.52C294.208 131.016 300.096 143.432 305.728 157.768C309.056 166.216 313.28 178.888 318.4 195.784C323.52 212.424 326.848 223.432 328.384 228.808C332.224 228.296 335.424 227.656 337.984 226.888C340.8 225.864 342.592 225.224 343.36 224.968C344.64 224.456 346.048 223.56 347.584 222.28C349.12 221 350.528 220.104 351.808 219.592C353.088 218.824 354.496 218.824 356.032 219.592C359.36 221.128 361.024 224.328 361.024 229.192ZM310.72 231.88C309.44 227.272 306.752 217.672 302.656 203.08C298.56 188.232 294.72 176.2 291.136 166.984C287.552 157.512 282.944 147.784 277.312 137.8C271.68 127.816 266.944 121.544 263.104 118.984L258.88 128.968C254.016 138.696 250.304 147.528 247.744 155.464C241.6 173.896 231.872 204.36 218.56 246.856L263.488 239.176L300.352 233.416L310.72 231.88Z" fill="#0F001E"/>
<path d="M359.488 234.952L345.177 227.797L344.802 228.548L344.507 229.334L359.488 234.952ZM356.032 239.56L347.157 226.247L346.353 226.783L345.619 227.412L356.032 239.56ZM344.896 243.784L347.758 259.526L348.102 259.463L348.442 259.386L344.896 243.784ZM333.376 245.704L331.391 229.828L314.137 231.984L317.719 249L333.376 245.704ZM336.448 259.912L351.855 255.598L320.448 259.912H336.448ZM342.208 286.408L357.96 283.601L357.955 283.573L357.95 283.546L342.208 286.408ZM356.416 352.456L372.051 349.057L371.97 348.686L371.872 348.32L356.416 352.456ZM341.056 367.816L353.996 358.405L353.78 358.108L353.55 357.821L341.056 367.816ZM336.832 360.904L321.365 364.998L321.57 365.772L321.851 366.522L336.832 360.904ZM330.304 331.72L314.522 334.35L314.552 334.532L314.587 334.714L330.304 331.72ZM323.776 292.936L307.962 295.369L307.981 295.489L308.001 295.61L323.776 292.936ZM318.784 268.36L303.194 271.958L303.204 272.003L303.215 272.047L318.784 268.36ZM314.176 248.776L329.698 244.895L326.223 230.996L312.026 232.921L314.176 248.776ZM236.224 261.064L233.594 245.282L233.55 245.289L233.505 245.297L236.224 261.064ZM213.952 264.904L211.233 249.137L202.015 250.726L198.878 259.539L213.952 264.904ZM205.888 287.56L190.814 282.195L190.8 282.235L190.786 282.274L205.888 287.56ZM195.136 318.28L180.034 312.994L179.966 313.191L179.902 313.388L195.136 318.28ZM175.936 382.792L160.429 378.85L160.355 379.143L160.291 379.44L175.936 382.792ZM171.328 391.624L160.014 380.31L159.717 380.608L159.435 380.921L171.328 391.624ZM155.584 393.16L145.171 405.308L145.567 405.647L145.984 405.96L155.584 393.16ZM157.504 368.584L142.369 363.395L142.347 363.459L142.325 363.524L157.504 368.584ZM162.88 352.456L148.024 346.514L147.72 347.274L147.496 348.06L162.88 352.456ZM169.024 334.792L153.845 329.732L169.024 334.792ZM181.696 298.696L166.715 293.078L166.687 293.153L166.659 293.228L181.696 298.696ZM192.448 270.28L207.36 276.079L218.38 247.741L188.783 254.705L192.448 270.28ZM163.264 277.576L167.336 293.049L167.457 293.017L167.578 292.983L163.264 277.576ZM138.688 278.344L124.701 286.114L125.232 287.07L125.888 287.944L138.688 278.344ZM139.072 264.904L147.947 278.217L148.658 277.743L149.315 277.196L139.072 264.904ZM146.752 261.448L143.065 245.879L142.708 245.963L142.356 246.064L146.752 261.448ZM177.472 254.536L174.194 238.875L174.157 238.883L174.12 238.891L177.472 254.536ZM200.128 249.928L203.077 265.654L212.221 263.939L215.254 255.144L200.128 249.928ZM205.888 231.112L190.596 226.407L190.47 226.816L190.366 227.231L205.888 231.112ZM209.728 218.824L194.626 213.538L194.545 213.771L194.471 214.006L209.728 218.824ZM215.488 200.008L200.138 195.493L200.1 195.623L200.064 195.753L215.488 200.008ZM221.248 180.424L236.598 184.939L236.62 184.864L236.641 184.789L221.248 180.424ZM238.144 121.672L223.076 116.291L222.976 116.57L222.887 116.854L238.144 121.672ZM241.6 113.224L228.032 104.744L227.629 105.389L227.289 106.069L241.6 113.224ZM260.416 112.456L254.798 127.437L264.445 131.055L271.73 123.77L260.416 112.456ZM262.72 109.384L249.7 100.084L249.55 100.294L249.407 100.509L262.72 109.384ZM266.56 105.928L272.502 120.784L273.12 120.536L273.715 120.239L266.56 105.928ZM288.064 120.52L274.11 128.348L274.182 128.476L274.256 128.603L288.064 120.52ZM305.728 157.768L290.836 163.618L290.839 163.625L290.841 163.632L305.728 157.768ZM318.4 195.784L303.088 200.424L303.098 200.457L303.108 200.489L318.4 195.784ZM328.384 228.808L313 233.204L316.797 246.495L330.499 244.668L328.384 228.808ZM337.984 226.888L342.582 242.213L343.021 242.081L343.452 241.925L337.984 226.888ZM343.36 224.968L348.42 240.147L348.866 239.998L349.302 239.824L343.36 224.968ZM347.584 222.28L337.341 209.988L337.341 209.988L347.584 222.28ZM351.808 219.592L357.75 234.448L358.941 233.971L360.04 233.312L351.808 219.592ZM356.032 219.592L348.877 233.903L349.1 234.015L349.327 234.119L356.032 219.592ZM310.72 231.88L313.065 247.707L330.985 245.052L326.136 227.598L310.72 231.88ZM302.656 203.08L287.232 207.335L287.242 207.369L287.251 207.404L302.656 203.08ZM291.136 166.984L276.171 172.646L276.197 172.715L276.224 172.783L291.136 166.984ZM277.312 137.8L263.376 145.661L263.376 145.661L277.312 137.8ZM263.104 118.984L271.979 105.671L255.899 94.9509L248.369 112.75L263.104 118.984ZM258.88 128.968L273.191 136.123L273.418 135.67L273.615 135.202L258.88 128.968ZM247.744 155.464L262.923 160.524L262.947 160.45L262.971 160.376L247.744 155.464ZM218.56 246.856L203.292 242.073L195.472 267.035L221.256 262.627L218.56 246.856ZM263.488 239.176L261.018 223.368L260.905 223.385L260.792 223.405L263.488 239.176ZM300.352 233.416L298.007 217.589L297.945 217.598L297.882 217.608L300.352 233.416ZM345.024 229.192C345.024 227.908 345.39 227.372 345.177 227.797L373.799 242.107C375.634 238.436 377.024 234.06 377.024 229.192H345.024ZM344.507 229.334C344.584 229.128 344.795 228.644 345.248 228.04C345.716 227.416 346.356 226.781 347.157 226.247L364.907 252.873C369.722 249.663 372.747 245.163 374.469 240.57L344.507 229.334ZM345.619 227.412C346.282 226.843 346.752 226.595 346.782 226.579C346.835 226.551 346.679 226.637 346.23 226.808C345.301 227.16 343.737 227.639 341.35 228.182L348.442 259.386C351.688 258.648 354.795 257.784 357.578 256.728C360.151 255.752 363.506 254.227 366.445 251.708L345.619 227.412ZM342.034 228.042C336.355 229.075 332.934 229.635 331.391 229.828L335.361 261.58C337.914 261.261 342.173 260.541 347.758 259.526L342.034 228.042ZM317.719 249C318.744 253.87 319.52 257.521 320.041 259.933C320.299 261.127 320.508 262.076 320.658 262.733C320.725 263.026 320.815 263.415 320.908 263.772C320.913 263.791 321.072 264.432 321.324 265.158C321.394 265.36 321.578 265.878 321.866 266.515C322.007 266.828 322.286 267.418 322.705 268.121C322.974 268.571 324.001 270.294 325.909 271.963C327.457 273.317 334.331 278.492 343.113 274.467C349.761 271.419 351.51 265.346 351.686 264.797C352.208 263.167 352.341 261.828 352.384 261.35C352.44 260.717 352.448 260.207 352.448 259.912H320.448C320.448 259.621 320.455 259.114 320.512 258.485C320.555 258.009 320.687 256.672 321.208 255.044C321.384 254.496 323.132 248.424 329.78 245.377C338.561 241.352 345.434 246.527 346.981 247.88C348.888 249.548 349.914 251.269 350.181 251.717C350.6 252.418 350.877 253.006 351.017 253.315C351.302 253.945 351.482 254.454 351.548 254.645C351.7 255.082 351.796 255.423 351.819 255.505C351.857 255.638 351.882 255.737 351.892 255.776C351.921 255.885 351.915 255.87 351.854 255.603C351.748 255.14 351.573 254.345 351.319 253.171C350.816 250.847 350.056 247.266 349.033 242.408L317.719 249ZM321.041 264.226C322.637 269.927 324.453 278.201 326.466 289.27L357.95 283.546C355.867 272.087 353.843 262.697 351.855 255.598L321.041 264.226ZM326.456 289.215C331.115 315.358 335.943 337.844 340.96 356.592L371.872 348.32C367.161 330.716 362.517 309.17 357.96 283.601L326.456 289.215ZM340.781 355.855C341.407 358.734 341.847 360.886 342.124 362.377C342.263 363.129 342.34 363.604 342.377 363.863C342.395 363.99 342.392 363.987 342.382 363.887C342.378 363.84 342.336 363.431 342.336 362.824H374.336C374.336 360.552 373.836 357.889 373.589 356.551C373.225 354.586 372.705 352.066 372.051 349.057L340.781 355.855ZM342.336 362.824C342.336 361.904 342.536 360.742 343.091 359.563C343.634 358.409 344.31 357.676 344.728 357.311L365.8 381.393C371.072 376.78 374.336 370.318 374.336 362.824H342.336ZM344.728 357.311C345.102 356.984 345.662 356.616 346.373 356.355C347.075 356.096 347.652 356.04 347.968 356.04V388.04C354.512 388.04 360.726 385.833 365.8 381.393L344.728 357.311ZM347.968 356.04C349.796 356.04 351.447 356.588 352.663 357.331C353.746 357.993 354.124 358.582 353.996 358.405L328.116 377.227C332.001 382.568 338.576 388.04 347.968 388.04V356.04ZM353.55 357.821C352.861 356.96 352.405 356.296 352.117 355.825C351.823 355.345 351.77 355.172 351.813 355.286L321.851 366.522C323.429 370.73 325.931 374.522 328.562 377.811L353.55 357.821ZM352.299 356.81C350.109 348.537 348.013 339.184 346.021 328.726L314.587 334.714C316.691 345.76 318.947 355.863 321.365 364.998L352.299 356.81ZM346.086 329.09C344.291 318.319 342.113 305.375 339.551 290.262L308.001 295.61C310.559 310.705 312.733 323.617 314.522 334.35L346.086 329.09ZM339.59 290.503C338.478 283.277 336.713 274.638 334.353 264.673L303.215 272.047C305.463 281.538 307.026 289.283 307.962 295.369L339.59 290.503ZM334.374 264.762C332.078 254.81 330.508 248.135 329.698 244.895L298.654 252.657C299.38 255.561 300.882 261.942 303.194 271.958L334.374 264.762ZM312.026 232.921C296.655 235.005 270.455 239.138 233.594 245.282L238.854 276.846C275.721 270.702 301.489 266.643 316.326 264.631L312.026 232.921ZM233.505 245.297L211.233 249.137L216.671 280.671L238.943 276.831L233.505 245.297ZM198.878 259.539L190.814 282.195L220.962 292.925L229.026 270.269L198.878 259.539ZM190.786 282.274L180.034 312.994L210.238 323.566L220.99 292.846L190.786 282.274ZM179.902 313.388C170.912 341.385 164.392 363.261 160.429 378.85L191.443 386.734C195.16 372.115 201.44 350.983 210.37 323.172L179.902 313.388ZM160.291 379.44C160.178 379.967 160.059 380.217 160.023 380.287C159.993 380.344 159.994 380.331 160.014 380.31L182.642 402.938C187.392 398.188 190.25 392.356 191.581 386.144L160.291 379.44ZM159.435 380.921C159.589 380.75 160.055 380.307 160.867 379.938C161.693 379.563 162.436 379.464 162.88 379.464V411.464C170.921 411.464 178.003 408.125 183.221 402.327L159.435 380.921ZM162.88 379.464C162.938 379.464 163.266 379.474 163.762 379.631C164.274 379.792 164.77 380.049 165.184 380.36L145.984 405.96C151.08 409.782 156.967 411.464 162.88 411.464V379.464ZM165.997 381.012C167.013 381.883 167.846 383.028 168.363 384.284C168.851 385.469 168.896 386.352 168.896 386.632H136.896C136.896 393.127 139.143 400.141 145.171 405.308L165.997 381.012ZM168.896 386.632C168.896 387.221 168.832 387.323 168.947 386.661C169.047 386.088 169.233 385.209 169.551 383.966C170.187 381.475 171.209 378.066 172.683 373.644L142.325 363.524C140.727 368.318 139.445 372.525 138.545 376.05C137.745 379.184 136.896 383.065 136.896 386.632H168.896ZM172.639 373.773C175.64 365.021 177.608 359.148 178.264 356.852L147.496 348.06C147.128 349.348 145.512 354.227 142.369 363.395L172.639 373.773ZM177.736 358.398C178.97 355.313 181.173 348.941 184.203 339.852L153.845 329.732C150.731 339.075 148.838 344.479 148.024 346.514L177.736 358.398ZM184.203 339.852C187.471 330.048 191.643 318.16 196.733 304.164L166.659 293.228C161.509 307.392 157.233 319.568 153.845 329.732L184.203 339.852ZM196.677 304.314C202.06 289.961 205.609 280.581 207.36 276.079L177.536 264.481C175.703 269.195 172.084 278.759 166.715 293.078L196.677 304.314ZM188.783 254.705C175.681 257.788 165.686 260.282 158.95 262.169L167.578 292.983C173.642 291.286 183.103 288.916 196.113 285.855L188.783 254.705ZM159.192 262.103C154.441 263.353 150.78 264.242 148.126 264.806C146.798 265.089 145.845 265.264 145.207 265.362C144.43 265.482 144.569 265.416 145.216 265.416V297.416C148.28 297.416 151.914 296.717 154.786 296.106C158.148 295.39 162.359 294.359 167.336 293.049L159.192 262.103ZM145.216 265.416C145.763 265.416 146.907 265.523 148.285 266.171C149.713 266.843 150.792 267.817 151.488 268.744L125.888 287.944C130.778 294.464 137.945 297.416 145.216 297.416V265.416ZM152.675 270.574C152.651 270.532 152.686 270.586 152.721 270.72C152.757 270.857 152.768 270.979 152.768 271.048H120.768C120.768 276.41 122.142 281.507 124.701 286.114L152.675 270.574ZM152.768 271.048C152.768 270.714 152.828 271.487 152.325 272.826C151.755 274.347 150.458 276.543 147.947 278.217L130.197 251.591C121.878 257.137 120.768 266.223 120.768 271.048H152.768ZM149.315 277.196C148.938 277.51 148.668 277.676 148.585 277.726C148.497 277.778 148.525 277.754 148.71 277.671C149.102 277.494 149.873 277.197 151.148 276.832L142.356 246.064C138.164 247.261 132.983 249.151 128.829 252.612L149.315 277.196ZM150.439 277.017C160.046 274.742 170.173 272.463 180.824 270.181L174.12 238.891C163.267 241.217 152.914 243.546 143.065 245.879L150.439 277.017ZM180.75 270.197C191.772 267.89 199.168 266.387 203.077 265.654L197.179 234.202C192.896 235.005 185.188 236.574 174.194 238.875L180.75 270.197ZM215.254 255.144C217.9 247.47 219.978 240.723 221.41 234.993L190.366 227.231C189.238 231.741 187.476 237.538 185.002 244.712L215.254 255.144ZM221.18 235.817C222.189 232.54 223.456 228.484 224.985 223.642L194.471 214.006C192.928 218.892 191.635 223.028 190.596 226.407L221.18 235.817ZM224.83 224.11C226.778 218.542 228.804 211.903 230.912 204.263L200.064 195.753C198.076 202.961 196.262 208.866 194.626 213.538L224.83 224.11ZM230.838 204.523L236.598 184.939L205.898 175.909L200.138 195.493L230.838 204.523ZM236.641 184.789C246.415 150.324 251.957 131.063 253.401 126.49L222.887 116.854C221.259 122.009 215.537 141.916 205.855 176.059L236.641 184.789ZM253.212 127.053C254.397 123.736 255.3 121.6 255.911 120.379L227.289 106.069C225.852 108.944 224.451 112.44 223.076 116.291L253.212 127.053ZM255.168 121.704C254.803 122.288 253.9 123.496 252.194 124.547C250.38 125.663 248.38 126.152 246.592 126.152V94.152C237.962 94.152 231.623 98.9986 228.032 104.744L255.168 121.704ZM246.592 126.152C250.114 126.152 252.776 126.679 254.798 127.437L266.034 97.4747C259.864 95.1609 253.31 94.152 246.592 94.152V126.152ZM271.73 123.77C273.499 122.001 275.05 119.734 276.033 118.259L249.407 100.509C249.207 100.809 249.036 101.06 248.892 101.265C248.748 101.471 248.643 101.614 248.576 101.704C248.505 101.798 248.501 101.799 248.557 101.733C248.586 101.697 248.644 101.629 248.727 101.536C248.809 101.446 248.935 101.309 249.102 101.142L271.73 123.77ZM275.74 118.684C275.881 118.486 275.768 118.687 275.343 119.069C274.918 119.451 273.986 120.19 272.502 120.784L260.618 91.0723C255.267 93.2125 251.791 97.1574 249.7 100.084L275.74 118.684ZM273.715 120.239C273.048 120.572 272.533 120.705 272.29 120.753C272.055 120.8 272.042 120.776 272.32 120.776V88.776C268.342 88.776 263.788 89.4255 259.405 91.6172L273.715 120.239ZM272.32 120.776C270.349 120.776 268.973 120.201 268.376 119.883C267.839 119.596 267.861 119.488 268.398 120.026C269.548 121.175 271.497 123.691 274.11 128.348L302.018 112.692C298.743 106.853 295.124 101.497 291.026 97.3983C287.159 93.532 280.834 88.776 272.32 88.776V120.776ZM274.256 128.603C279.888 138.225 285.431 149.861 290.836 163.618L320.62 151.918C314.761 137.003 308.528 123.807 301.872 112.437L274.256 128.603ZM290.841 163.632C293.926 171.461 298 183.634 303.088 200.424L333.712 191.144C328.56 174.142 324.186 160.971 320.615 151.904L290.841 163.632ZM303.108 200.489C308.237 217.159 311.516 228.01 313 233.204L343.768 224.412C342.18 218.854 338.803 207.689 333.692 191.079L303.108 200.489ZM330.499 244.668C334.841 244.089 338.937 243.306 342.582 242.213L333.386 211.563C331.911 212.006 329.607 212.503 326.269 212.948L330.499 244.668ZM343.452 241.925C346.333 240.877 347.9 240.32 348.42 240.147L338.3 209.789C337.284 210.128 335.267 210.851 332.516 211.851L343.452 241.925ZM349.302 239.824C352.672 238.476 355.528 236.487 357.827 234.572L337.341 209.988C337.174 210.128 337.042 210.23 336.946 210.301C336.849 210.373 336.796 210.407 336.786 210.413C336.776 210.42 336.821 210.391 336.92 210.339C337.019 210.287 337.185 210.205 337.418 210.112L349.302 239.824ZM357.827 234.572C357.994 234.432 358.126 234.33 358.222 234.259C358.319 234.187 358.372 234.153 358.382 234.147C358.392 234.14 358.347 234.169 358.248 234.221C358.149 234.273 357.983 234.355 357.75 234.448L345.866 204.736C342.497 206.084 339.64 208.073 337.341 209.988L357.827 234.572ZM360.04 233.312C358.349 234.326 356.196 235.016 353.824 235.016C351.557 235.016 349.85 234.389 348.877 233.903L363.187 205.281C357.623 202.499 350.32 201.826 343.576 205.872L360.04 233.312ZM349.327 234.119C348.678 233.82 347.927 233.35 347.204 232.663C346.478 231.975 345.944 231.224 345.581 230.526C344.887 229.192 345.024 228.474 345.024 229.192H377.024C377.024 220.514 373.646 210.1 362.737 205.065L349.327 234.119ZM326.136 227.598C324.849 222.965 322.155 213.344 318.061 198.756L287.251 207.404C291.349 222 294.031 231.579 295.304 236.162L326.136 227.598ZM318.08 198.825C313.909 183.707 309.905 171.103 306.048 161.185L276.224 172.783C279.535 181.297 283.211 192.757 287.232 207.335L318.08 198.825ZM306.101 161.322C302.195 151 297.227 140.538 291.248 129.939L263.376 145.661C268.661 155.03 272.909 164.023 276.171 172.646L306.101 161.322ZM291.248 129.939C288.225 124.581 285.246 119.862 282.305 115.966C279.503 112.257 276.084 108.408 271.979 105.671L254.229 132.297C253.964 132.12 254.833 132.687 256.767 135.25C258.562 137.626 260.767 141.035 263.376 145.661L291.248 129.939ZM248.369 112.75L244.145 122.734L273.615 135.202L277.839 125.218L248.369 112.75ZM244.569 121.813C239.446 132.06 235.387 141.655 232.517 150.552L262.971 160.376C265.221 153.401 268.586 145.332 273.191 136.123L244.569 121.813ZM232.565 150.404C226.371 168.986 216.605 199.571 203.292 242.073L233.828 251.639C247.139 209.149 256.829 178.806 262.923 160.524L232.565 150.404ZM221.256 262.627L266.184 254.947L260.792 223.405L215.864 231.085L221.256 262.627ZM265.958 254.984L302.822 249.224L297.882 217.608L261.018 223.368L265.958 254.984ZM302.697 249.243L313.065 247.707L308.375 216.053L298.007 217.589L302.697 249.243Z" fill="#0F001E"/>
</g>
<defs>
<clipPath id="clip0_402_90">
<rect width="512" height="512" fill="white"/>
</clipPath>
</defs>
</svg>
