<svg viewBox="0 0 35 16" xmlns="http://www.w3.org/2000/svg"><path d="m27.673 6.891-.727-.29c-3.413 7.68-16.992 3.011-17.81 5.296-.136 1.543 7.416.293 12.815.555 1.646.08 2.472 1.323 1.773 3.348l1.377.005c1.588-4.952 6.657-2.425 6.87-4.06-.349-1.074-5.827 0-4.298-4.854" fill="#fff"/><path d="M24.114 14.954c.218-.727.145-1.453-.218-1.889s-.872-.726-1.525-.799l-12.638-.145c-.073 0-.146-.073-.218-.073q-.11-.108 0-.218c.072-.145.145-.218.29-.218l12.71-.145c1.526-.072 3.124-1.307 3.705-2.76l.726-1.888c0-.073.073-.145 0-.218-.799-3.704-4.14-6.464-8.062-6.464-3.631 0-6.754 2.324-7.844 5.592a3.96 3.96 0 0 0-2.615-.726c-1.743.145-3.123 1.598-3.34 3.341-.073.436 0 .872.072 1.307A5.303 5.303 0 0 0 0 14.954c0 .29 0 .508.073.799 0 .145.145.218.218.218h23.314c.146 0 .29-.073.29-.218z" fill="#f4811f"/><path d="M28.109 6.819h-.364c-.072 0-.145.072-.218.145l-.508 1.743c-.218.727-.145 1.453.218 1.889s.872.726 1.525.799l2.688.145c.072 0 .145.073.218.073q.108.108 0 .217c-.073.146-.146.218-.291.218l-2.76.146c-1.525.072-3.123 1.307-3.704 2.76l-.146.653c-.072.073 0 .218.146.218H34.5q.218 0 .218-.218c.145-.58.29-1.234.29-1.888 0-3.777-3.123-6.9-6.9-6.9" fill="#faad3f"/></svg>