<svg xmlns="http://www.w3.org/2000/svg" width="800" height="200" viewBox="20 135 1000 100" style="shape-rendering:geometricPrecision;text-rendering:geometricPrecision;image-rendering:optimizeQuality;fill-rule:evenodd;clip-rule:evenodd"><path fill="#009688" d="M178.5 111.5c37.426-3.545 64.259 11.455 80.5 45 11.963 37.78 1.796 67.946-30.5 90.5-34.356 16.903-65.189 12.07-92.5-14.5-19.085-24.442-22.752-51.109-11-80 11.36-22.202 29.193-35.869 53.5-41Zm18 18a441.579 441.579 0 0 1 1 42c8.028-.331 16.028.002 24 1l-33.5 67a924.222 924.222 0 0 1-.5-43 144.841 144.841 0 0 1-24-1 1522.528 1522.528 0 0 0 33-66Zm595-10c14.437-.601 28.77.232 43 2.5 25.164 7.817 34.664 24.65 28.5 50.5-2.558 9.223-8.058 16.056-16.5 20.5a70.579 70.579 0 0 1-21 6 235.715 235.715 0 0 1-31 1.5v46h-19c-.333-41.339 0-82.672 1-124a195.198 195.198 0 0 1 15-3Zm4 16c11.448-.51 22.781.323 34 2.5 15.341 7.297 19.508 18.797 12.5 34.5-4.599 6.217-10.766 9.717-18.5 10.5a201.33 201.33 0 0 1-29 1.5 613.831 613.831 0 0 1 1-49Zm-475-15h77v16h-58v37h51v15h-51v58h-19v-126Z"/><path style="opacity:.967" fill="#009688" d="M692.5 120.5a79.547 79.547 0 0 1 17.5 1 1257.873 1257.873 0 0 1 49.5 125c-6.7.33-13.366-.003-20-1l-11-30a392.598 392.598 0 0 0-56 0l-11 30a91.123 91.123 0 0 1-19 1 1117.03 1117.03 0 0 1 50-126Zm7 23c3.216 4.088 5.716 8.754 7.5 14a1062.917 1062.917 0 0 1 15.5 42h-44a706.248 706.248 0 0 1 21-56Z"/><path fill="#009688" d="M885.5 120.5h18v126h-18v-126Zm-289 2h3v29h35v15h-35c-.167 18.003 0 36.003.5 54 2.066 9.062 7.733 13.062 17 12 6.181.163 12.014-1.17 17.5-4l4 14a3.647 3.647 0 0 1-1 1.5c-14.724 5.932-29.391 5.932-44 0-6.85-5.532-10.683-12.699-11.5-21.5-.5-32.332-.667-64.665-.5-97a115.795 115.795 0 0 0 15-3Zm-169 27c10.585-.789 20.918.377 31 3.5 11.26 6.066 16.76 15.566 16.5 28.5.5 21.331.667 42.664.5 64a450.267 450.267 0 0 1-36 3c-32.394.124-43.894-15.209-34.5-46 7.357-8.095 16.524-12.595 27.5-13.5a86.187 86.187 0 0 1 25 1.5c1.658-16.162-5.508-24.829-21.5-26a100.296 100.296 0 0 0-22.5 4 182.299 182.299 0 0 1-3-14c5.486-2.557 11.153-4.224 17-5Zm5 54c8.362-.165 16.695.168 25 1v28a111.305 111.305 0 0 1-24 .5c-12.093-1.769-16.593-8.603-13.5-20.5 3.222-4.357 7.389-7.357 12.5-9Zm90-54c11.449-.672 22.616.661 33.5 4 .2 5.001-.633 9.834-2.5 14.5a148.473 148.473 0 0 1-14-3c-7.68-1.263-15.013-.263-22 3-4.973 5.848-4.639 11.514 1 17a733.33 733.33 0 0 1 33 15c9.357 7.739 12.523 17.573 9.5 29.5-3.425 9.754-10.258 15.587-20.5 17.5-15.264 2.684-30.264 1.684-45-3a3.647 3.647 0 0 1-1-1.5 130.846 130.846 0 0 0 3-14 184.21 184.21 0 0 0 18 4.5c8.655 1.274 16.989.274 25-3 4.64-6.86 3.64-12.86-3-18a755.692 755.692 0 0 1-33-16c-7.572-7.281-10.072-16.114-7.5-26.5 2.003-8.002 6.836-13.502 14.5-16.5a204.134 204.134 0 0 1 11-3.5Z"/></svg>