<svg width="763" height="252" viewBox="0 0 763 252" fill="none" xmlns="http://www.w3.org/2000/svg">
<g clip-path="url(#clip0_1_2)">
<rect width="763" height="252" rx="64" fill="white"/>
<g clip-path="url(#clip1_1_2)">
<path d="M153.281 80.75L178.354 85.4913L199 80.75L153.281 35L146.974 56.6896L153.281 80.75Z" fill="#56368A"/>
<path d="M153.281 80.75V35H78.4687C71.5798 35 66 40.5836 66 47.4773V205.523C66 212.416 71.5798 218 78.4687 218H186.531C193.42 218 199 212.416 199 205.523V80.75H153.281Z" fill="#7248B9"/>
<path d="M101.328 167.051C97.8888 167.051 95.0937 164.254 95.0937 160.812C95.0937 157.371 97.8888 154.574 101.328 154.574C104.767 154.574 107.562 157.371 107.562 160.812C107.562 164.254 104.767 167.051 101.328 167.051ZM101.328 142.097C97.8888 142.097 95.0937 139.3 95.0937 135.858C95.0937 132.416 97.8888 129.619 101.328 129.619C104.767 129.619 107.562 132.416 107.562 135.858C107.562 139.3 104.767 142.097 101.328 142.097ZM101.328 117.142C97.8888 117.142 95.0937 114.345 95.0937 110.903C95.0937 107.462 97.8888 104.665 101.328 104.665C104.767 104.665 107.562 107.462 107.562 110.903C107.562 114.345 104.767 117.142 101.328 117.142ZM169.906 166.011H117.953V155.614H169.906V166.011ZM169.906 141.057H117.953V130.659H169.906V141.057ZM169.906 116.102H117.953V105.704H169.906V116.102Z" fill="white"/>
</g>
<path d="M265.992 151.128H286.368V177.768C283.68 178.68 280.872 179.4 277.944 179.928C275.064 180.456 271.776 180.72 268.08 180.72C262.992 180.72 258.648 179.712 255.048 177.696C251.496 175.68 248.784 172.704 246.912 168.768C245.088 164.832 244.176 159.984 244.176 154.224C244.176 148.848 245.208 144.192 247.272 140.256C249.384 136.32 252.432 133.272 256.416 131.112C260.4 128.952 265.272 127.872 271.032 127.872C273.768 127.872 276.456 128.16 279.096 128.736C281.736 129.312 284.136 130.08 286.296 131.04L282.696 139.752C281.112 138.936 279.312 138.264 277.296 137.736C275.28 137.208 273.168 136.944 270.96 136.944C267.792 136.944 265.032 137.664 262.68 139.104C260.376 140.544 258.576 142.584 257.28 145.224C256.032 147.816 255.408 150.888 255.408 154.44C255.408 157.8 255.864 160.776 256.776 163.368C257.688 165.96 259.128 168 261.096 169.488C263.064 170.928 265.632 171.648 268.8 171.648C269.856 171.648 270.768 171.624 271.536 171.576C272.352 171.48 273.096 171.384 273.768 171.288C274.44 171.144 275.088 171.024 275.712 170.928V160.2H265.992V151.128ZM333.43 160.272C333.43 163.536 332.974 166.44 332.062 168.984C331.198 171.528 329.926 173.688 328.246 175.464C326.614 177.192 324.622 178.512 322.27 179.424C319.918 180.288 317.254 180.72 314.278 180.72C311.542 180.72 308.998 180.288 306.646 179.424C304.342 178.512 302.35 177.192 300.67 175.464C298.99 173.688 297.67 171.528 296.71 168.984C295.798 166.44 295.342 163.536 295.342 160.272C295.342 155.904 296.11 152.232 297.646 149.256C299.182 146.232 301.39 143.928 304.27 142.344C307.15 140.76 310.558 139.968 314.494 139.968C318.19 139.968 321.454 140.76 324.286 142.344C327.118 143.928 329.35 146.232 330.982 149.256C332.614 152.232 333.43 155.904 333.43 160.272ZM306.286 160.272C306.286 162.864 306.55 165.048 307.078 166.824C307.654 168.552 308.542 169.872 309.742 170.784C310.942 171.648 312.502 172.08 314.422 172.08C316.342 172.08 317.878 171.648 319.03 170.784C320.23 169.872 321.094 168.552 321.622 166.824C322.198 165.048 322.486 162.864 322.486 160.272C322.486 157.68 322.198 155.52 321.622 153.792C321.094 152.064 320.23 150.768 319.03 149.904C317.83 149.04 316.27 148.608 314.35 148.608C311.518 148.608 309.454 149.592 308.158 151.56C306.91 153.48 306.286 156.384 306.286 160.272ZM378.008 160.272C378.008 163.536 377.552 166.44 376.64 168.984C375.776 171.528 374.504 173.688 372.824 175.464C371.192 177.192 369.2 178.512 366.848 179.424C364.496 180.288 361.832 180.72 358.856 180.72C356.12 180.72 353.576 180.288 351.224 179.424C348.92 178.512 346.928 177.192 345.248 175.464C343.568 173.688 342.248 171.528 341.288 168.984C340.376 166.44 339.92 163.536 339.92 160.272C339.92 155.904 340.688 152.232 342.224 149.256C343.76 146.232 345.968 143.928 348.848 142.344C351.728 140.76 355.136 139.968 359.072 139.968C362.768 139.968 366.032 140.76 368.864 142.344C371.696 143.928 373.928 146.232 375.56 149.256C377.192 152.232 378.008 155.904 378.008 160.272ZM350.864 160.272C350.864 162.864 351.128 165.048 351.656 166.824C352.232 168.552 353.12 169.872 354.32 170.784C355.52 171.648 357.08 172.08 359 172.08C360.92 172.08 362.456 171.648 363.608 170.784C364.808 169.872 365.672 168.552 366.2 166.824C366.776 165.048 367.064 162.864 367.064 160.272C367.064 157.68 366.776 155.52 366.2 153.792C365.672 152.064 364.808 150.768 363.608 149.904C362.408 149.04 360.848 148.608 358.928 148.608C356.096 148.608 354.032 149.592 352.736 151.56C351.488 153.48 350.864 156.384 350.864 160.272ZM399.618 139.968C402.018 139.968 404.178 140.448 406.098 141.408C408.018 142.368 409.65 143.808 410.994 145.728H411.282L412.146 140.688H421.218V180.072C421.218 183.816 420.474 186.96 418.986 189.504C417.546 192.048 415.362 193.968 412.434 195.264C409.506 196.608 405.882 197.28 401.562 197.28C398.778 197.28 396.186 197.112 393.786 196.776C391.434 196.44 389.13 195.84 386.874 194.976V186.408C388.506 187.08 390.138 187.632 391.77 188.064C393.45 188.544 395.154 188.88 396.882 189.072C398.658 189.312 400.434 189.432 402.21 189.432C404.994 189.432 407.058 188.688 408.402 187.2C409.794 185.712 410.49 183.48 410.49 180.504V179.712C410.49 178.896 410.514 178.056 410.562 177.192C410.658 176.328 410.73 175.56 410.778 174.888H410.49C409.146 176.952 407.538 178.44 405.666 179.352C403.794 180.264 401.682 180.72 399.33 180.72C394.674 180.72 391.026 178.944 388.386 175.392C385.794 171.792 384.498 166.8 384.498 160.416C384.498 156.096 385.098 152.424 386.298 149.4C387.498 146.328 389.226 144 391.482 142.416C393.786 140.784 396.498 139.968 399.618 139.968ZM403.002 148.68C401.322 148.68 399.906 149.136 398.754 150.048C397.65 150.912 396.81 152.232 396.234 154.008C395.706 155.736 395.442 157.92 395.442 160.56C395.442 164.496 396.066 167.448 397.314 169.416C398.562 171.336 400.506 172.296 403.146 172.296C404.538 172.296 405.738 172.128 406.746 171.792C407.754 171.408 408.57 170.808 409.194 169.992C409.866 169.128 410.37 168.024 410.706 166.68C411.042 165.336 411.21 163.704 411.21 161.784V160.488C411.21 157.656 410.922 155.376 410.346 153.648C409.77 151.92 408.882 150.672 407.682 149.904C406.482 149.088 404.922 148.68 403.002 148.68ZM443.164 180H432.436V125.28H443.164V180ZM470.574 139.968C474.222 139.968 477.342 140.664 479.934 142.056C482.574 143.448 484.614 145.464 486.054 148.104C487.494 150.744 488.214 153.984 488.214 157.824V163.008H462.87C462.966 166.032 463.854 168.408 465.534 170.136C467.262 171.864 469.638 172.728 472.662 172.728C475.206 172.728 477.51 172.488 479.574 172.008C481.638 171.48 483.774 170.688 485.982 169.632V177.912C484.062 178.872 482.022 179.568 479.862 180C477.75 180.48 475.182 180.72 472.158 180.72C468.222 180.72 464.742 180 461.718 178.56C458.694 177.072 456.318 174.84 454.59 171.864C452.862 168.888 451.998 165.144 451.998 160.632C451.998 156.024 452.766 152.208 454.302 149.184C455.886 146.112 458.07 143.808 460.854 142.272C463.638 140.736 466.878 139.968 470.574 139.968ZM470.646 147.6C468.582 147.6 466.854 148.272 465.462 149.616C464.118 150.96 463.326 153.048 463.086 155.88H478.134C478.134 154.296 477.846 152.88 477.27 151.632C476.742 150.384 475.926 149.4 474.822 148.68C473.718 147.96 472.326 147.6 470.646 147.6ZM527.208 180H516.48V128.592H545.928V137.52H527.208V150.768H544.632V159.696H527.208V180ZM590.844 160.272C590.844 163.536 590.388 166.44 589.476 168.984C588.612 171.528 587.34 173.688 585.66 175.464C584.028 177.192 582.036 178.512 579.684 179.424C577.332 180.288 574.668 180.72 571.692 180.72C568.956 180.72 566.412 180.288 564.06 179.424C561.756 178.512 559.764 177.192 558.084 175.464C556.404 173.688 555.084 171.528 554.124 168.984C553.212 166.44 552.756 163.536 552.756 160.272C552.756 155.904 553.524 152.232 555.06 149.256C556.596 146.232 558.804 143.928 561.684 142.344C564.564 140.76 567.972 139.968 571.908 139.968C575.604 139.968 578.868 140.76 581.7 142.344C584.532 143.928 586.764 146.232 588.396 149.256C590.028 152.232 590.844 155.904 590.844 160.272ZM563.7 160.272C563.7 162.864 563.964 165.048 564.492 166.824C565.068 168.552 565.956 169.872 567.156 170.784C568.356 171.648 569.916 172.08 571.836 172.08C573.756 172.08 575.292 171.648 576.444 170.784C577.644 169.872 578.508 168.552 579.036 166.824C579.612 165.048 579.9 162.864 579.9 160.272C579.9 157.68 579.612 155.52 579.036 153.792C578.508 152.064 577.644 150.768 576.444 149.904C575.244 149.04 573.684 148.608 571.764 148.608C568.932 148.608 566.868 149.592 565.572 151.56C564.324 153.48 563.7 156.384 563.7 160.272ZM621.67 139.968C622.198 139.968 622.822 139.992 623.542 140.04C624.262 140.088 624.838 140.16 625.27 140.256L624.478 150.336C624.142 150.24 623.638 150.168 622.966 150.12C622.342 150.024 621.79 149.976 621.31 149.976C619.918 149.976 618.574 150.168 617.278 150.552C615.982 150.888 614.806 151.44 613.75 152.208C612.742 152.976 611.926 154.008 611.302 155.304C610.726 156.552 610.438 158.112 610.438 159.984V180H599.71V140.688H607.846L609.43 147.312H609.934C610.702 145.968 611.662 144.744 612.814 143.64C613.966 142.536 615.286 141.648 616.774 140.976C618.31 140.304 619.942 139.968 621.67 139.968ZM678.557 139.968C683.021 139.968 686.381 141.12 688.637 143.424C690.941 145.68 692.093 149.328 692.093 154.368V180H681.365V157.032C681.365 154.2 680.885 152.088 679.925 150.696C678.965 149.256 677.477 148.536 675.461 148.536C672.629 148.536 670.613 149.544 669.413 151.56C668.213 153.576 667.613 156.48 667.613 160.272V180H656.885V157.032C656.885 155.16 656.669 153.6 656.237 152.352C655.805 151.104 655.157 150.168 654.293 149.544C653.429 148.872 652.325 148.536 650.981 148.536C649.013 148.536 647.453 149.04 646.301 150.048C645.149 151.056 644.333 152.52 643.853 154.44C643.373 156.36 643.133 158.712 643.133 161.496V180H632.405V140.688H640.613L642.053 145.728H642.629C643.445 144.384 644.453 143.304 645.653 142.488C646.853 141.624 648.173 141 649.613 140.616C651.101 140.184 652.589 139.968 654.077 139.968C656.957 139.968 659.405 140.448 661.421 141.408C663.437 142.32 664.973 143.76 666.029 145.728H666.965C668.165 143.712 669.821 142.248 671.933 141.336C674.093 140.424 676.301 139.968 678.557 139.968Z" fill="black"/>
<path d="M248.64 103H244.368V68.728H262.416V72.52H248.64V84.664H261.552V88.456H248.64V103ZM271.594 77.272V103H267.418V77.272H271.594ZM269.53 67.624C270.17 67.624 270.73 67.848 271.21 68.296C271.69 68.712 271.93 69.384 271.93 70.312C271.93 71.208 271.69 71.88 271.21 72.328C270.73 72.776 270.17 73 269.53 73C268.858 73 268.282 72.776 267.802 72.328C267.322 71.88 267.082 71.208 267.082 70.312C267.082 69.384 267.322 68.712 267.802 68.296C268.282 67.848 268.858 67.624 269.53 67.624ZM283.359 103H279.183V66.52H283.359V103ZM295.124 103H290.948V66.52H295.124V103ZM335.601 90.088C335.601 92.232 335.329 94.136 334.785 95.8C334.273 97.432 333.521 98.824 332.529 99.976C331.537 101.128 330.337 102.008 328.929 102.616C327.521 103.192 325.953 103.48 324.225 103.48C322.625 103.48 321.137 103.192 319.761 102.616C318.417 102.008 317.233 101.128 316.209 99.976C315.217 98.824 314.449 97.432 313.905 95.8C313.361 94.136 313.089 92.232 313.089 90.088C313.089 87.24 313.537 84.84 314.433 82.888C315.361 80.904 316.673 79.4 318.369 78.376C320.065 77.32 322.065 76.792 324.369 76.792C326.577 76.792 328.513 77.32 330.177 78.376C331.873 79.4 333.201 80.904 334.161 82.888C335.121 84.84 335.601 87.24 335.601 90.088ZM317.409 90.088C317.409 92.104 317.649 93.864 318.129 95.368C318.609 96.84 319.361 97.976 320.385 98.776C321.409 99.576 322.721 99.976 324.321 99.976C325.921 99.976 327.233 99.576 328.257 98.776C329.281 97.976 330.033 96.84 330.513 95.368C331.025 93.864 331.281 92.104 331.281 90.088C331.281 88.04 331.025 86.296 330.513 84.856C330.033 83.416 329.281 82.312 328.257 81.544C327.233 80.744 325.905 80.344 324.273 80.344C321.873 80.344 320.129 81.208 319.041 82.936C317.953 84.664 317.409 87.048 317.409 90.088ZM362.208 77.272V103H358.848L358.224 99.592H358.032C357.52 100.488 356.848 101.224 356.016 101.8C355.216 102.376 354.336 102.792 353.376 103.048C352.416 103.336 351.408 103.48 350.352 103.48C348.432 103.48 346.816 103.16 345.504 102.52C344.192 101.848 343.2 100.824 342.528 99.448C341.888 98.072 341.568 96.296 341.568 94.12V77.272H345.792V93.832C345.792 95.88 346.224 97.416 347.088 98.44C347.952 99.464 349.28 99.976 351.072 99.976C352.832 99.976 354.208 99.624 355.2 98.92C356.224 98.184 356.944 97.128 357.36 95.752C357.808 94.344 358.032 92.648 358.032 90.664V77.272H362.208ZM378.096 100.024C378.704 100.024 379.328 99.976 379.968 99.88C380.608 99.752 381.136 99.624 381.552 99.496V102.712C381.104 102.936 380.464 103.112 379.632 103.24C378.832 103.4 378.064 103.48 377.328 103.48C376.048 103.48 374.864 103.256 373.776 102.808C372.688 102.328 371.808 101.512 371.136 100.36C370.496 99.208 370.176 97.592 370.176 95.512V80.536H366.768V78.52L370.272 76.84L371.856 71.368H374.352V77.272H381.36V80.536H374.352V95.416C374.352 96.984 374.704 98.152 375.408 98.92C376.112 99.656 377.008 100.024 378.096 100.024ZM406.362 100.024C406.97 100.024 407.594 99.976 408.234 99.88C408.874 99.752 409.402 99.624 409.818 99.496V102.712C409.37 102.936 408.73 103.112 407.898 103.24C407.098 103.4 406.33 103.48 405.594 103.48C404.314 103.48 403.13 103.256 402.042 102.808C400.954 102.328 400.074 101.512 399.402 100.36C398.762 99.208 398.442 97.592 398.442 95.512V80.536H395.034V78.52L398.538 76.84L400.122 71.368H402.618V77.272H409.626V80.536H402.618V95.416C402.618 96.984 402.97 98.152 403.674 98.92C404.378 99.656 405.274 100.024 406.362 100.024ZM418.781 77.224C418.781 77.832 418.749 78.456 418.685 79.096C418.653 79.736 418.605 80.312 418.541 80.824H418.829C419.341 79.928 419.981 79.192 420.749 78.616C421.549 78.04 422.413 77.608 423.341 77.32C424.301 77 425.293 76.84 426.317 76.84C428.269 76.84 429.901 77.176 431.213 77.848C432.525 78.488 433.517 79.496 434.189 80.872C434.861 82.248 435.197 84.04 435.197 86.248V103H431.021V86.536C431.021 84.456 430.589 82.904 429.725 81.88C428.861 80.856 427.533 80.344 425.741 80.344C423.981 80.344 422.589 80.712 421.565 81.448C420.541 82.152 419.821 83.208 419.405 84.616C418.989 85.992 418.781 87.688 418.781 89.704V103H414.605V66.52H418.781V77.224ZM452.044 76.792C454.124 76.792 455.916 77.272 457.42 78.232C458.924 79.192 460.076 80.552 460.876 82.312C461.708 84.04 462.124 86.072 462.124 88.408V90.952H445.612C445.676 93.864 446.364 96.088 447.676 97.624C448.988 99.128 450.828 99.88 453.196 99.88C454.732 99.88 456.092 99.736 457.276 99.448C458.492 99.128 459.74 98.68 461.02 98.104V101.8C459.772 102.376 458.54 102.792 457.324 103.048C456.14 103.336 454.7 103.48 453.004 103.48C450.7 103.48 448.668 102.984 446.908 101.992C445.148 101 443.772 99.528 442.78 97.576C441.788 95.592 441.292 93.176 441.292 90.328C441.292 87.512 441.74 85.096 442.636 83.08C443.532 81.064 444.78 79.512 446.38 78.424C448.012 77.336 449.9 76.792 452.044 76.792ZM452.044 80.248C450.188 80.248 448.716 80.904 447.628 82.216C446.54 83.496 445.9 85.288 445.708 87.592H457.804C457.804 86.12 457.596 84.84 457.18 83.752C456.764 82.664 456.124 81.816 455.26 81.208C454.428 80.568 453.356 80.248 452.044 80.248Z" fill="black"/>
</g>
<defs>
<clipPath id="clip0_1_2">
<rect width="763" height="252" fill="white"/>
</clipPath>
<clipPath id="clip1_1_2">
<rect width="133" height="183" fill="white" transform="translate(66 35)"/>
</clipPath>
</defs>
</svg>
