<?xml version="1.0" standalone="no"?>
<!DOCTYPE svg PUBLIC "-//W3C//DTD SVG 20010904//EN"
 "http://www.w3.org/TR/2001/REC-SVG-20010904/DTD/svg10.dtd">
<svg version="1.0" xmlns="http://www.w3.org/2000/svg"
 width="700.000000pt" height="700.000000pt" viewBox="0 0 700.000000 700.000000"
 preserveAspectRatio="xMidYMid meet">
<metadata>
Created by potrace 1.14, written by Peter Selinger 2001-2017
</metadata>
<g transform="translate(0.000000,700.000000) scale(0.100000,-0.100000)"
fill="#000000" stroke="none">
<path d="M3640 5780 c-25 -5 -72 -23 -104 -40 -52 -27 -69 -30 -147 -30 -79 0
-93 -3 -150 -33 -78 -40 -122 -95 -166 -209 -18 -46 -104 -333 -192 -638 -88
-305 -186 -640 -219 -745 -33 -104 -67 -218 -77 -251 l-17 -62 -86 -17 c-48
-9 -195 -41 -327 -71 -262 -59 -337 -87 -408 -153 -167 -154 -102 -491 108
-570 89 -34 129 -35 266 -7 69 14 133 28 142 32 12 4 8 -16 -20 -93 -91 -252
-314 -910 -339 -999 -39 -140 -40 -247 -1 -325 109 -222 420 -261 596 -74 69
72 93 127 151 336 97 349 187 638 312 994 140 401 121 361 171 368 23 4 250
40 504 82 254 41 468 75 477 75 21 0 56 -158 136 -627 68 -396 128 -681 157
-751 46 -110 160 -229 246 -258 113 -38 253 -10 342 68 59 52 89 99 111 174
21 73 12 149 -45 375 -42 166 -101 445 -180 849 -27 140 -52 262 -56 271 -5
13 8 21 59 39 120 43 199 122 246 248 18 48 21 72 18 152 -3 80 -9 104 -33
153 -85 172 -295 230 -448 124 -16 -10 -29 -18 -31 -16 -2 2 -29 90 -61 194
-130 428 -208 639 -326 884 -147 305 -262 462 -382 520 -69 34 -155 45 -227
31z m85 -1020 c23 -52 61 -149 84 -215 48 -135 163 -527 157 -533 -3 -2 -130
-23 -283 -48 -153 -24 -298 -48 -323 -53 -25 -5 -47 -8 -49 -6 -5 6 276 886
321 1005 10 25 10 25 30 -15 12 -22 40 -83 63 -135z"/>
</g>
</svg>
